<svg version="1.2" xmlns="http://www.w3.org/2000/svg" viewBox="0 0 800 800" width="800" height="800">
	<title>burned</title>
	<style>
		.s0 { fill: #ffffff } 
	</style>
	<path class="s0" d="m397.2 799.4c-188.5 0-322.2-130.7-322.2-310.8 0-95.5 57.3-198.5 59.8-202.8 4.9-8.9 14.7-13.7 24.9-12.6 10.1 1.3 18.4 8.6 21 18.4 0.2 0.6 15.6 58.4 36 90.5 13.7 21.6 27.6 36.9 43.2 47.5-10.5-45.8-18.6-114.8-5.5-185.5 36.2-194.2 189.1-240.7 195.6-242.6 8.5-2.4 17.4-0.2 23.8 5.6 6.4 5.9 9.4 14.7 7.7 23.2-0.3 1.3-25.5 137.3 28.1 253.2 4.8 10.5 11.6 22.7 18.9 34.9 2.1-16.8 5.3-34.6 10.3-52 19.6-68.7 70.4-92.2 72.6-93.1 8.4-3.9 18.3-2.6 25.6 3.1 7.4 5.8 10.9 15.1 9.2 24.3-0.3 1.7-7.4 48.4 32.4 114.8 36 59.9 46.3 98.7 46.3 173.2 0 180-137.8 310.7-327.7 310.7zm-244.3-434c-13.7 34.6-27.9 80.6-27.9 123.3 0 151.1 112.7 260.7 272.2 260.7 160.9 0 277.7-109.6 277.7-260.8 0-65.2-8-95.5-39.1-147.4-20.9-34.7-31.1-65.9-36-90.7-5 8.1-9.6 17.8-12.9 29.6-15.3 53.3-11.4 115.6-11.4 116.3 0.8 11.1-6 21.4-16.6 25.2-10.5 3.7-22.3 0-28.7-9.1-1.9-2.7-46.4-65.6-66-108-40.7-88-40-183.1-35.8-237.9-41.2 24-104.5 77.6-124.8 186.7-19.7 106.1 18.7 212.2 19.1 213.2 3.3 8.6 1.6 18.5-4.5 25.4-6.2 7-15.6 10-24.7 7.9-3.1-0.8-73.4-19.1-119-90.9-8.1-12.8-15.4-28.4-21.6-43.5z"/>
</svg>